<svg width="1148" height="297" viewBox="0 0 1148 297" fill="none" xmlns="http://www.w3.org/2000/svg">
<g clip-path="url(#clip0_244_9305)">
<path d="M25.6584 237.273C30.7651 237.273 35.2589 238.09 39.0379 239.827C42.8168 241.563 45.6765 243.912 47.7192 247.078C49.7619 250.244 50.7832 253.921 50.7832 258.211C50.7832 262.398 49.7619 266.177 47.7192 269.343C45.6765 272.509 42.8168 274.961 39.0379 276.595C35.2589 278.229 30.8672 279.148 25.6584 279.148H14.0152V295.081H0.635742V237.273H25.6584ZM24.9435 268.22C28.9267 268.22 31.9907 267.403 34.1355 265.666C36.1781 263.93 37.3016 261.479 37.3016 258.313C37.3016 255.045 36.2803 252.593 34.1355 250.857C32.0928 249.121 29.0288 248.304 24.9435 248.304H14.0152V268.322H24.9435V268.22ZM104.301 284.357V295.081H59.5666V237.273H103.178V247.997H72.844V260.56H99.705V270.977H72.844V284.357H104.301ZM137.494 271.794H128.302V295.081H115.025V237.273H128.302V260.662H137.903L153.121 237.273H167.215L148.32 265.156L167.828 295.081H152.61L137.596 271.794H137.494ZM226.861 237.273V295.081H213.686V248.202H193.872L193.463 260.253C193.157 268.424 192.544 275.063 191.523 280.169C190.502 285.276 188.765 289.157 186.314 291.915C183.863 294.672 180.39 296 175.999 296C174.16 296 172.015 295.694 169.36 295.081L170.177 283.744C170.892 283.948 171.709 284.05 172.526 284.05C175.692 284.05 177.939 282.212 179.165 278.433C180.39 274.654 181.207 268.73 181.514 260.764L182.331 237.375H226.759L226.861 237.273ZM280.379 282.621H253.518L248.411 294.979H234.725L260.463 237.171H273.638L299.478 294.979H285.485L280.379 282.621ZM276.191 272.509L266.999 250.346L257.807 272.509H276.089H276.191ZM359.838 295.081L359.736 260.458L342.782 288.953H336.858L319.904 261.173V295.081H307.342V237.273H318.372L340.025 273.122L361.268 237.273H372.299L372.401 295.081H359.838ZM439.707 237.273V295.081H426.327V271.386H400.079V295.081H386.7V237.273H400.079V260.049H426.327V237.273H439.707ZM481.683 296C475.658 296 470.245 294.672 465.444 292.119C460.644 289.566 456.865 285.991 454.108 281.395C451.35 276.901 450.022 271.794 450.022 266.075C450.022 260.458 451.35 255.351 454.108 250.755C456.865 246.261 460.644 242.686 465.444 240.031C470.245 237.478 475.658 236.15 481.683 236.15C487.709 236.15 493.122 237.478 497.821 240.031C502.621 242.584 506.4 246.159 509.157 250.755C511.915 255.249 513.243 260.355 513.243 266.075C513.243 271.692 511.915 276.799 509.157 281.395C506.4 285.889 502.621 289.463 497.821 292.119C493.02 294.672 487.607 296 481.683 296ZM481.683 284.561C485.054 284.561 488.22 283.744 490.876 282.212C493.633 280.68 495.778 278.433 497.31 275.675C498.842 272.918 499.659 269.65 499.659 266.075C499.659 262.5 498.842 259.334 497.31 256.474C495.778 253.717 493.633 251.47 490.876 249.938C488.118 248.406 485.054 247.589 481.683 247.589C478.313 247.589 475.147 248.406 472.389 249.938C469.632 251.47 467.487 253.717 465.955 256.474C464.423 259.232 463.606 262.5 463.606 266.075C463.606 269.65 464.423 272.816 465.955 275.675C467.487 278.433 469.632 280.68 472.389 282.212C475.147 283.744 478.211 284.561 481.683 284.561ZM568.293 284.255V294.979H523.558V237.171H567.169V247.895H536.835V260.458H563.697V270.875H536.835V284.255H568.293ZM664.911 282.621H638.05L632.943 294.979H619.257L644.995 237.171H658.17L684.01 294.979H670.017L664.911 282.621ZM660.723 272.509L651.531 250.346L642.339 272.509H660.621H660.723ZM732.421 248.202H704.947L705.049 295.081H691.772V237.273H732.523L732.421 248.202ZM785.428 284.357V295.081H740.694V237.273H784.304V247.997H753.971V260.56H780.832V270.977H753.971V284.357H785.428ZM849.261 237.273V295.081H835.882V271.386H809.633V295.081H796.254V237.273H809.633V260.049H835.882V237.273H849.261ZM907.886 248.202H889.4V295.081H876.224V248.202H857.84V237.273H907.886V248.202ZM942.815 296.102C936.892 296.102 931.581 294.774 926.883 292.221C922.082 289.668 918.405 286.093 915.648 281.599C912.89 277.105 911.563 271.897 911.563 266.177C911.563 260.458 912.89 255.351 915.648 250.755C918.405 246.261 922.082 242.686 926.883 240.133C931.683 237.58 936.994 236.252 942.917 236.252C947.922 236.252 952.416 237.171 956.501 238.907C960.586 240.644 963.957 243.197 966.714 246.465L958.135 254.432C954.254 249.938 949.352 247.691 943.632 247.691C940.058 247.691 936.892 248.508 934.032 250.04C931.274 251.572 929.027 253.819 927.495 256.577C925.963 259.334 925.146 262.602 925.146 266.177C925.146 269.752 925.963 272.918 927.495 275.778C929.027 278.535 931.274 280.782 934.032 282.314C936.789 283.846 940.058 284.663 943.632 284.663C949.454 284.663 954.254 282.416 958.135 277.82L966.714 285.787C963.957 289.157 960.586 291.71 956.501 293.447C952.416 295.183 947.922 296.102 942.917 296.102H942.815ZM1019.01 248.202H1000.52V295.081H987.345V248.202H968.961V237.273H1019.01V248.202ZM1067.42 264.951C1070.89 265.973 1073.65 267.709 1075.49 270.058C1077.32 272.407 1078.24 275.369 1078.24 278.842C1078.24 283.948 1076.3 287.931 1072.42 290.791C1068.54 293.651 1063.03 295.081 1055.77 295.081H1027.28V237.273H1054.14C1060.88 237.273 1066.09 238.601 1069.77 241.154C1073.55 243.708 1075.38 247.385 1075.38 252.185C1075.38 255.045 1074.67 257.598 1073.24 259.743C1071.81 261.887 1069.77 263.624 1067.21 264.849L1067.42 264.951ZM1040.66 261.275H1053.12C1056.08 261.275 1058.23 260.662 1059.76 259.538C1061.29 258.313 1062 256.577 1062 254.33C1062 252.083 1061.29 250.346 1059.76 249.121C1058.23 247.895 1056.08 247.282 1053.22 247.282H1040.76V261.275H1040.66ZM1055.37 285.174C1061.6 285.174 1064.76 282.723 1064.76 277.718C1064.76 272.918 1061.6 270.569 1055.37 270.569H1040.66V285.174H1055.37ZM1116.44 296.102C1110.42 296.102 1105 294.774 1100.2 292.221C1095.4 289.668 1091.62 286.093 1088.87 281.497C1086.11 277.003 1084.78 271.897 1084.78 266.177C1084.78 260.56 1086.11 255.453 1088.87 250.857C1091.62 246.363 1095.4 242.789 1100.2 240.133C1105 237.58 1110.42 236.252 1116.44 236.252C1122.47 236.252 1127.88 237.58 1132.58 240.133C1137.38 242.686 1141.16 246.261 1143.92 250.857C1146.67 255.351 1148 260.458 1148 266.177C1148 271.794 1146.67 276.901 1143.92 281.497C1141.16 285.991 1137.38 289.566 1132.58 292.221C1127.78 294.774 1122.37 296.102 1116.44 296.102ZM1116.44 284.663C1119.81 284.663 1122.98 283.846 1125.74 282.314C1128.49 280.782 1130.64 278.535 1132.17 275.778C1133.7 273.02 1134.52 269.752 1134.52 266.177C1134.52 262.602 1133.7 259.436 1132.17 256.577C1130.64 253.819 1128.49 251.572 1125.74 250.04C1122.98 248.508 1119.91 247.691 1116.44 247.691C1113.07 247.691 1109.91 248.508 1107.15 250.04C1104.39 251.572 1102.25 253.819 1100.71 256.577C1099.18 259.334 1098.36 262.602 1098.36 266.177C1098.36 269.752 1099.18 272.918 1100.71 275.778C1102.25 278.535 1104.49 280.782 1107.15 282.314C1109.91 283.846 1112.97 284.663 1116.44 284.663Z" fill="white"/>
<path d="M131.672 89.3808C142.294 92.8533 150.362 98.1642 155.979 105.314C161.495 112.463 164.354 121.451 164.354 132.072C164.354 148.005 158.124 160.568 145.766 169.658C133.306 178.85 115.739 183.446 92.9632 183.446H0.736816V3.58882H88.0608C109.611 3.58882 126.361 7.67416 138.31 15.7427C150.26 23.9133 156.184 35.3523 156.184 50.2637C156.184 59.0472 154.039 66.7072 149.851 73.3458C145.664 79.9845 139.638 85.2954 131.774 89.2786L131.672 89.3808ZM50.7821 75.4906H83.1584C97.5592 75.4906 104.708 69.5669 104.708 57.7195C104.708 45.872 97.5592 39.9483 83.1584 39.9483H50.7821V75.3885V75.4906ZM90.8184 146.882C105.526 146.882 112.879 140.652 112.879 128.089C112.879 115.935 105.526 109.807 90.8184 109.807H50.7821V146.78H90.8184V146.882ZM270.267 186.918C251.27 186.918 234.213 182.935 218.996 174.866C203.88 166.798 191.93 155.665 183.249 141.469C174.568 127.272 170.278 111.237 170.278 93.4661C170.278 75.6949 174.568 59.66 183.249 45.4635C191.93 31.2669 203.778 20.1344 218.996 12.0659C234.111 3.99736 251.27 0.0141602 270.267 0.0141602C289.263 0.0141602 306.32 3.99736 321.537 12.0659C336.653 20.1344 348.603 31.2669 357.284 45.4635C365.965 59.66 370.255 75.6949 370.255 93.4661C370.255 111.237 365.965 127.272 357.284 141.469C348.603 155.665 336.755 166.798 321.537 174.866C306.422 182.935 289.263 186.918 270.267 186.918ZM270.267 144.737C279.356 144.737 287.527 142.592 294.881 138.303C302.234 134.013 308.056 127.987 312.345 120.225C316.635 112.463 318.78 103.475 318.78 93.364C318.78 83.2528 316.635 74.2651 312.345 66.5029C308.056 58.7408 302.234 52.7149 294.881 48.4253C287.527 44.1357 279.254 41.9909 270.267 41.9909C261.177 41.9909 253.006 44.1357 245.652 48.4253C238.299 52.7149 232.477 58.7408 228.188 66.5029C223.898 74.2651 221.753 83.2528 221.753 93.364C221.753 103.475 223.898 112.463 228.188 120.225C232.477 127.987 238.299 134.013 245.652 138.303C253.006 142.592 261.279 144.737 270.267 144.737ZM529.889 43.7272H474.942V183.241H424.896V43.7272H369.642V3.38456H529.991V43.7272H529.889Z" fill="white"/>
<path d="M690.139 43.9291H635.191V183.443H585.044V43.9291H529.892V3.58643H690.139V43.9291Z" fill="white"/>
<path d="M806.875 148.514H730.785L716.691 183.443H664.807L744.165 3.58643H794.21L873.874 183.443H820.969L806.875 148.514ZM791.963 111.031L768.881 53.5296L745.799 111.031H792.065H791.963Z" fill="white"/>
<path d="M957.318 114.605H934.236V183.443H883.578V3.58643H934.236V73.4456H958.646L1001.54 3.58643H1054.96L998.682 90.3997L1055.47 183.443H998.171L957.318 114.605Z" fill="white"/>
<path d="M1089.89 3.58643H1147.9L1138.1 117.874H1099.28L1089.79 3.58643H1089.89ZM1118.89 185.69C1110.32 185.69 1103.27 183.035 1097.85 177.826C1092.34 172.617 1089.68 166.183 1089.68 158.727C1089.68 151.067 1092.44 144.735 1097.85 139.73C1103.37 134.726 1110.32 132.274 1118.89 132.274C1127.47 132.274 1134.42 134.726 1139.83 139.73C1145.24 144.735 1147.9 151.067 1147.9 158.727C1147.9 166.285 1145.14 172.617 1139.73 177.826C1134.21 183.035 1127.27 185.69 1118.89 185.69Z" fill="white"/>
</g>
<defs>
<clipPath id="clip0_244_9305">
<rect width="1147.37" height="296.015" fill="white" transform="translate(0.635742)"/>
</clipPath>
</defs>
</svg>
